<svg width="12" height="12" viewBox="0 0 12 12" fill="none" xmlns="http://www.w3.org/2000/svg">
<path d="M12 10.6667V9.56938C12 9.02417 11.6681 8.53389 11.1619 8.33141L9.80576 7.78897C9.16191 7.53143 8.42813 7.81041 8.11801 8.43066L8 8.66667C8 8.66667 6.33333 8.33333 5 7C3.66667 5.66667 3.33333 4 3.33333 4L3.56934 3.88199C4.18959 3.57187 4.46857 2.83809 4.21103 2.19424L3.66859 0.838146C3.46611 0.331935 2.97583 0 2.43062 0H1.33333C0.596954 0 0 0.596954 0 1.33333C0 7.22437 4.77563 12 10.6667 12C11.403 12 12 11.403 12 10.6667Z" fill="#5D4F2E"/>
</svg>
