<svg width="16" height="16" viewBox="0 0 16 16" fill="none" xmlns="http://www.w3.org/2000/svg">
<path d="M2 12.7662H14C14.1501 12.7663 14.2942 12.8262 14.4004 12.9323C14.5067 13.0385 14.5664 13.1833 14.5664 13.3336C14.5663 13.4838 14.5066 13.6278 14.4004 13.734C14.2942 13.8402 14.1502 13.8999 14 13.9H2C1.84971 13.9 1.7049 13.8403 1.59863 13.734C1.49254 13.6278 1.4327 13.4837 1.43262 13.3336C1.43262 13.1833 1.49236 13.0385 1.59863 12.9323C1.7049 12.826 1.84971 12.7662 2 12.7662Z" fill="#2E2A94" stroke="#2E2A94" stroke-width="0.2"/>
<path d="M8 1.43298C8.15011 1.43304 8.29419 1.49292 8.40039 1.599C8.50666 1.70527 8.56641 1.85008 8.56641 2.00037V9.30212L8.7373 9.13025L10.9307 6.93103C10.9835 6.87816 11.0462 6.83562 11.1152 6.80701C11.1842 6.77844 11.2583 6.76405 11.333 6.76404C11.4077 6.76404 11.4818 6.77848 11.5508 6.80701C11.6198 6.83561 11.6825 6.87819 11.7354 6.93103C11.7882 6.9839 11.8308 7.04652 11.8594 7.1156C11.8879 7.18463 11.9023 7.25866 11.9023 7.33337C11.9023 7.40809 11.8879 7.48212 11.8594 7.55115C11.8308 7.62023 11.7882 7.68284 11.7354 7.73572L8.40234 11.0697C8.34967 11.1228 8.28682 11.165 8.21777 11.1937C8.14878 11.2225 8.07474 11.2376 8 11.2377C7.92531 11.2377 7.85119 11.2224 7.78223 11.1937C7.74776 11.1794 7.71444 11.1617 7.68359 11.141L7.59766 11.0697L4.26367 7.73572C4.15703 7.62896 4.09668 7.48428 4.09668 7.33337C4.09668 7.18247 4.15703 7.03779 4.26367 6.93103C4.37035 6.82435 4.51516 6.76416 4.66602 6.76404C4.81703 6.76404 4.96255 6.82425 5.06934 6.93103L7.2627 9.13025L7.43359 9.30212V2.00037C7.43359 1.85011 7.4924 1.70526 7.59863 1.599C7.7049 1.49273 7.84971 1.43298 8 1.43298Z" fill="#2E2A94" stroke="#2E2A94" stroke-width="0.2"/>
</svg>
