<svg width="110" height="150" viewBox="0 0 110 150" fill="none" xmlns="http://www.w3.org/2000/svg">
<path d="M105.124 82.9108L96.8076 74.5858L104.934 66.4512C111.079 60.3007 111.079 50.2935 104.934 44.143C101.957 41.1635 97.9999 39.5225 93.7902 39.5225C89.5805 39.5225 85.6225 41.1635 82.6466 44.143L74.3561 52.44L57.3578 35.4254L65.8471 26.9279C68.824 23.9484 70.4634 19.9874 70.4634 15.7738C70.4634 11.5601 68.824 7.59913 65.8471 4.61964C62.8712 1.64096 58.9132 0 54.7035 0C50.4935 0 46.5362 1.64096 43.5595 4.62046C37.4146 10.771 37.4146 20.779 43.5595 26.9296L52.0492 35.427L35.118 52.3737L26.8963 44.1446C20.7514 37.994 10.7527 37.994 4.60865 44.1446C-1.53622 50.2952 -1.53622 60.3032 4.60865 66.4527L12.9256 74.7777L4.79841 82.9123C1.82167 85.8919 0.182229 89.8526 0.182229 94.0665C0.182229 98.2799 1.82167 102.242 4.79841 105.221C7.77517 108.2 11.7324 109.841 15.9422 109.841C20.152 109.841 24.1093 108.201 27.0861 105.221L35.2124 97.0866L52.0482 113.938L43.5587 122.436C40.5819 125.414 38.9425 129.376 38.9425 133.59C38.9425 137.803 40.5819 141.765 43.5587 144.744C46.6315 147.819 50.6672 149.357 54.7025 149.357C58.7378 149.357 62.7741 147.819 65.8466 144.744C68.823 141.765 70.4624 137.803 70.4624 133.59C70.4624 129.376 68.823 125.414 65.8466 122.436L57.3568 113.938L74.4506 96.8283L82.8352 105.221C85.8111 108.2 89.7696 109.841 93.9793 109.841C98.1891 109.841 102.146 108.201 105.123 105.221C111.268 99.0707 111.268 89.0628 105.123 82.9123L105.124 82.9108ZM85.5684 47.0686C87.7651 44.8701 90.6848 43.6596 93.7902 43.6596C96.8956 43.6596 99.8153 44.8701 102.012 47.0686C106.545 51.6061 106.545 58.9899 102.012 63.5273L93.7902 71.7566L77.3471 55.298L85.5684 47.0686ZM90.7319 74.6815L74.1786 91.25L57.6253 74.6815L74.1786 58.1125L90.7319 74.6815ZM54.7035 71.7566L38.1501 55.1876L54.7035 38.6193L71.2568 55.1876L54.7035 71.7566ZM35.3224 91.1553L18.7691 74.5868L35.2271 58.1125L51.7802 74.6815L35.3215 91.1553H35.3224ZM54.7035 77.6064L71.2568 94.1749L54.7035 110.743L38.1501 94.1749L54.7035 77.6064ZM46.4817 7.54531C48.6774 5.34678 51.5981 4.13623 54.7035 4.13623C57.8088 4.13623 60.7286 5.34678 62.9248 7.54531C65.1209 9.74389 66.331 12.6663 66.331 15.7746C66.331 18.8829 65.1209 21.8061 62.9248 24.0039L54.7035 32.2331L46.4817 24.0039C41.9478 19.4666 41.9478 12.0826 46.4817 7.54531ZM7.53083 47.0686C9.79737 44.8 12.7749 43.6653 15.7525 43.6653C18.73 43.6653 21.7076 44.8 23.9741 47.0686L32.1958 55.298L15.7525 71.7566L7.53083 63.5273C2.99689 58.9899 2.99689 51.6061 7.53083 47.0686ZM24.1639 102.295C21.9674 104.493 19.0476 105.703 15.9422 105.703C12.8368 105.703 9.91711 104.493 7.72056 102.295C5.52405 100.096 4.31464 97.1736 4.31464 94.0655C4.31464 90.9574 5.52405 88.035 7.72056 85.8362L15.8478 77.7026L32.2911 94.1607L24.1639 102.296V102.295ZM66.331 133.588C66.331 136.697 65.1209 139.619 62.9248 141.817C58.3909 146.355 51.0146 146.356 46.4817 141.817C44.2852 139.619 43.0757 136.697 43.0757 133.588C43.0757 130.48 44.2852 127.557 46.4817 125.359L54.7035 117.13L62.9248 125.359C65.1209 127.557 66.331 130.48 66.331 133.588ZM102.202 102.295C100.005 104.493 97.0852 105.703 93.9798 105.703C90.8745 105.703 87.9547 104.493 85.7585 102.295L77.5368 94.0655L93.9798 77.6069L102.202 85.8362C106.734 90.3746 106.734 97.7574 102.202 102.295Z" fill="url(#paint0_radial_4913_5456)"/>
<defs>
<radialGradient id="paint0_radial_4913_5456" cx="0" cy="0" r="1" gradientUnits="userSpaceOnUse" gradientTransform="translate(54.8658 74.6785) rotate(90) scale(74.6785 54.8658)">
<stop stop-color="white"/>
<stop offset="1" stop-color="#997F42" stop-opacity="0"/>
</radialGradient>
</defs>
</svg>
