<svg width="139" height="178" viewBox="0 0 139 178" fill="none" xmlns="http://www.w3.org/2000/svg">
<g clip-path="url(#clip0_4913_5450)">
<path d="M119.374 97.1608L111.058 88.8358L119.184 80.7012C125.329 74.5507 125.329 64.5435 119.184 58.393C116.207 55.4135 112.25 53.7725 108.04 53.7725C103.83 53.7725 99.8725 55.4135 96.8966 58.393L88.6061 66.69L71.6078 49.6754L80.0971 41.1779C83.074 38.1984 84.7134 34.2374 84.7134 30.0238C84.7134 25.8101 83.074 21.8491 80.0971 18.8696C77.1212 15.891 73.1632 14.25 68.9535 14.25C64.7435 14.25 60.7862 15.891 57.8095 18.8705C51.6646 25.021 51.6646 35.029 57.8095 41.1796L66.2992 49.677L49.368 66.6237L41.1463 58.3946C35.0014 52.244 25.0027 52.244 18.8586 58.3946C12.7138 64.5452 12.7138 74.5532 18.8586 80.7027L27.1756 89.0277L19.0484 97.1623C16.0717 100.142 14.4322 104.103 14.4322 108.317C14.4322 112.53 16.0717 116.492 19.0484 119.471C22.0252 122.45 25.9824 124.091 30.1922 124.091C34.402 124.091 38.3593 122.451 41.3361 119.471L49.4624 111.337L66.2982 128.188L57.8087 136.686C54.8319 139.664 53.1925 143.626 53.1925 147.84C53.1925 152.053 54.8319 156.015 57.8087 158.994C60.8815 162.069 64.9172 163.607 68.9525 163.607C72.9878 163.607 77.0241 162.069 80.0966 158.994C83.073 156.015 84.7124 152.053 84.7124 147.84C84.7124 143.626 83.073 139.664 80.0966 136.686L71.6068 128.188L88.7006 111.078L97.0852 119.471C100.061 122.45 104.02 124.091 108.229 124.091C112.439 124.091 116.396 122.451 119.373 119.471C125.518 113.321 125.518 103.313 119.373 97.1623L119.374 97.1608ZM99.8184 61.3186C102.015 59.1201 104.935 57.9096 108.04 57.9096C111.146 57.9096 114.065 59.1201 116.262 61.3186C120.795 65.8561 120.795 73.2399 116.262 77.7773L108.04 86.0066L91.5971 69.548L99.8184 61.3186ZM104.982 88.9315L88.4286 105.5L71.8753 88.9315L88.4286 72.3625L104.982 88.9315ZM68.9535 86.0066L52.4001 69.4376L68.9535 52.8693L85.5068 69.4376L68.9535 86.0066ZM49.5724 105.405L33.0191 88.8368L49.4771 72.3625L66.0302 88.9315L49.5715 105.405H49.5724ZM68.9535 91.8564L85.5068 108.425L68.9535 124.993L52.4001 108.425L68.9535 91.8564ZM60.7317 21.7953C62.9274 19.5968 65.8481 18.3862 68.9535 18.3862C72.0588 18.3862 74.9786 19.5968 77.1748 21.7953C79.3709 23.9939 80.581 26.9163 80.581 30.0246C80.581 33.1329 79.3709 36.0561 77.1748 38.2539L68.9535 46.4831L60.7317 38.2539C56.1978 33.7166 56.1978 26.3326 60.7317 21.7953ZM21.7808 61.3186C24.0474 59.05 27.0249 57.9153 30.0025 57.9153C32.98 57.9153 35.9576 59.05 38.2241 61.3186L46.4458 69.548L30.0025 86.0066L21.7808 77.7773C17.2469 73.2399 17.2469 65.8561 21.7808 61.3186ZM38.4139 116.545C36.2174 118.743 33.2976 119.953 30.1922 119.953C27.0868 119.953 24.1671 118.743 21.9706 116.545C19.7741 114.346 18.5646 111.424 18.5646 108.316C18.5646 105.207 19.7741 102.285 21.9706 100.086L30.0978 91.9526L46.5411 108.411L38.4139 116.546V116.545ZM80.581 147.838C80.581 150.947 79.3709 153.869 77.1748 156.067C72.6409 160.605 65.2646 160.606 60.7317 156.067C58.5352 153.869 57.3257 150.947 57.3257 147.838C57.3257 144.73 58.5352 141.807 60.7317 139.609L68.9535 131.38L77.1748 139.609C79.3709 141.807 80.581 144.73 80.581 147.838ZM116.452 116.545C114.255 118.743 111.335 119.953 108.23 119.953C105.124 119.953 102.205 118.743 100.009 116.545L91.7868 108.316L108.23 91.8569L116.452 100.086C120.984 104.625 120.984 112.007 116.452 116.545Z" fill="url(#paint0_radial_4913_5450)"/>
</g>
<g clip-path="url(#clip1_4913_5450)" filter="url(#filter0_f_4913_5450)">
<path d="M119.374 97.1608L111.058 88.8358L119.184 80.7012C125.329 74.5507 125.329 64.5435 119.184 58.393C116.207 55.4135 112.25 53.7725 108.04 53.7725C103.83 53.7725 99.8725 55.4135 96.8966 58.393L88.6061 66.69L71.6078 49.6754L80.0971 41.1779C83.074 38.1984 84.7134 34.2374 84.7134 30.0238C84.7134 25.8101 83.074 21.8491 80.0971 18.8696C77.1212 15.891 73.1632 14.25 68.9535 14.25C64.7435 14.25 60.7862 15.891 57.8095 18.8705C51.6646 25.021 51.6646 35.029 57.8095 41.1796L66.2992 49.677L49.368 66.6237L41.1463 58.3946C35.0014 52.244 25.0027 52.244 18.8586 58.3946C12.7138 64.5452 12.7138 74.5532 18.8586 80.7027L27.1756 89.0277L19.0484 97.1623C16.0717 100.142 14.4322 104.103 14.4322 108.317C14.4322 112.53 16.0717 116.492 19.0484 119.471C22.0252 122.45 25.9824 124.091 30.1922 124.091C34.402 124.091 38.3593 122.451 41.3361 119.471L49.4624 111.337L66.2982 128.188L57.8087 136.686C54.8319 139.664 53.1925 143.626 53.1925 147.84C53.1925 152.053 54.8319 156.015 57.8087 158.994C60.8815 162.069 64.9172 163.607 68.9525 163.607C72.9878 163.607 77.0241 162.069 80.0966 158.994C83.073 156.015 84.7124 152.053 84.7124 147.84C84.7124 143.626 83.073 139.664 80.0966 136.686L71.6068 128.188L88.7006 111.078L97.0852 119.471C100.061 122.45 104.02 124.091 108.229 124.091C112.439 124.091 116.396 122.451 119.373 119.471C125.518 113.321 125.518 103.313 119.373 97.1623L119.374 97.1608ZM99.8184 61.3186C102.015 59.1201 104.935 57.9096 108.04 57.9096C111.146 57.9096 114.065 59.1201 116.262 61.3186C120.795 65.8561 120.795 73.2399 116.262 77.7773L108.04 86.0066L91.5971 69.548L99.8184 61.3186ZM104.982 88.9315L88.4286 105.5L71.8753 88.9315L88.4286 72.3625L104.982 88.9315ZM68.9535 86.0066L52.4001 69.4376L68.9535 52.8693L85.5068 69.4376L68.9535 86.0066ZM49.5724 105.405L33.0191 88.8368L49.4771 72.3625L66.0302 88.9315L49.5715 105.405H49.5724ZM68.9535 91.8564L85.5068 108.425L68.9535 124.993L52.4001 108.425L68.9535 91.8564ZM60.7317 21.7953C62.9274 19.5968 65.8481 18.3862 68.9535 18.3862C72.0588 18.3862 74.9786 19.5968 77.1748 21.7953C79.3709 23.9939 80.581 26.9163 80.581 30.0246C80.581 33.1329 79.3709 36.0561 77.1748 38.2539L68.9535 46.4831L60.7317 38.2539C56.1978 33.7166 56.1978 26.3326 60.7317 21.7953ZM21.7808 61.3186C24.0474 59.05 27.0249 57.9153 30.0025 57.9153C32.98 57.9153 35.9576 59.05 38.2241 61.3186L46.4458 69.548L30.0025 86.0066L21.7808 77.7773C17.2469 73.2399 17.2469 65.8561 21.7808 61.3186ZM38.4139 116.545C36.2174 118.743 33.2976 119.953 30.1922 119.953C27.0868 119.953 24.1671 118.743 21.9706 116.545C19.7741 114.346 18.5646 111.424 18.5646 108.316C18.5646 105.207 19.7741 102.285 21.9706 100.086L30.0978 91.9526L46.5411 108.411L38.4139 116.546V116.545ZM80.581 147.838C80.581 150.947 79.3709 153.869 77.1748 156.067C72.6409 160.605 65.2646 160.606 60.7317 156.067C58.5352 153.869 57.3257 150.947 57.3257 147.838C57.3257 144.73 58.5352 141.807 60.7317 139.609L68.9535 131.38L77.1748 139.609C79.3709 141.807 80.581 144.73 80.581 147.838ZM116.452 116.545C114.255 118.743 111.335 119.953 108.23 119.953C105.124 119.953 102.205 118.743 100.009 116.545L91.7868 108.316L108.23 91.8569L116.452 100.086C120.984 104.625 120.984 112.007 116.452 116.545Z" fill="url(#paint1_radial_4913_5450)"/>
</g>
<g clip-path="url(#clip2_4913_5450)" filter="url(#filter1_f_4913_5450)">
<path d="M119.374 97.1608L111.058 88.8358L119.184 80.7012C125.329 74.5507 125.329 64.5435 119.184 58.393C116.207 55.4135 112.25 53.7725 108.04 53.7725C103.83 53.7725 99.8725 55.4135 96.8966 58.393L88.6061 66.69L71.6078 49.6754L80.0971 41.1779C83.074 38.1984 84.7134 34.2374 84.7134 30.0238C84.7134 25.8101 83.074 21.8491 80.0971 18.8696C77.1212 15.891 73.1632 14.25 68.9535 14.25C64.7435 14.25 60.7862 15.891 57.8095 18.8705C51.6646 25.021 51.6646 35.029 57.8095 41.1796L66.2992 49.677L49.368 66.6237L41.1463 58.3946C35.0014 52.244 25.0027 52.244 18.8586 58.3946C12.7138 64.5452 12.7138 74.5532 18.8586 80.7027L27.1756 89.0277L19.0484 97.1623C16.0717 100.142 14.4322 104.103 14.4322 108.317C14.4322 112.53 16.0717 116.492 19.0484 119.471C22.0252 122.45 25.9824 124.091 30.1922 124.091C34.402 124.091 38.3593 122.451 41.3361 119.471L49.4624 111.337L66.2982 128.188L57.8087 136.686C54.8319 139.664 53.1925 143.626 53.1925 147.84C53.1925 152.053 54.8319 156.015 57.8087 158.994C60.8815 162.069 64.9172 163.607 68.9525 163.607C72.9878 163.607 77.0241 162.069 80.0966 158.994C83.073 156.015 84.7124 152.053 84.7124 147.84C84.7124 143.626 83.073 139.664 80.0966 136.686L71.6068 128.188L88.7006 111.078L97.0852 119.471C100.061 122.45 104.02 124.091 108.229 124.091C112.439 124.091 116.396 122.451 119.373 119.471C125.518 113.321 125.518 103.313 119.373 97.1623L119.374 97.1608ZM99.8184 61.3186C102.015 59.1201 104.935 57.9096 108.04 57.9096C111.146 57.9096 114.065 59.1201 116.262 61.3186C120.795 65.8561 120.795 73.2399 116.262 77.7773L108.04 86.0066L91.5971 69.548L99.8184 61.3186ZM104.982 88.9315L88.4286 105.5L71.8753 88.9315L88.4286 72.3625L104.982 88.9315ZM68.9535 86.0066L52.4001 69.4376L68.9535 52.8693L85.5068 69.4376L68.9535 86.0066ZM49.5724 105.405L33.0191 88.8368L49.4771 72.3625L66.0302 88.9315L49.5715 105.405H49.5724ZM68.9535 91.8564L85.5068 108.425L68.9535 124.993L52.4001 108.425L68.9535 91.8564ZM60.7317 21.7953C62.9274 19.5968 65.8481 18.3862 68.9535 18.3862C72.0588 18.3862 74.9786 19.5968 77.1748 21.7953C79.3709 23.9939 80.581 26.9163 80.581 30.0246C80.581 33.1329 79.3709 36.0561 77.1748 38.2539L68.9535 46.4831L60.7317 38.2539C56.1978 33.7166 56.1978 26.3326 60.7317 21.7953ZM21.7808 61.3186C24.0474 59.05 27.0249 57.9153 30.0025 57.9153C32.98 57.9153 35.9576 59.05 38.2241 61.3186L46.4458 69.548L30.0025 86.0066L21.7808 77.7773C17.2469 73.2399 17.2469 65.8561 21.7808 61.3186ZM38.4139 116.545C36.2174 118.743 33.2976 119.953 30.1922 119.953C27.0868 119.953 24.1671 118.743 21.9706 116.545C19.7741 114.346 18.5646 111.424 18.5646 108.316C18.5646 105.207 19.7741 102.285 21.9706 100.086L30.0978 91.9526L46.5411 108.411L38.4139 116.546V116.545ZM80.581 147.838C80.581 150.947 79.3709 153.869 77.1748 156.067C72.6409 160.605 65.2646 160.606 60.7317 156.067C58.5352 153.869 57.3257 150.947 57.3257 147.838C57.3257 144.73 58.5352 141.807 60.7317 139.609L68.9535 131.38L77.1748 139.609C79.3709 141.807 80.581 144.73 80.581 147.838ZM116.452 116.545C114.255 118.743 111.335 119.953 108.23 119.953C105.124 119.953 102.205 118.743 100.009 116.545L91.7868 108.316L108.23 91.8569L116.452 100.086C120.984 104.625 120.984 112.007 116.452 116.545Z" fill="url(#paint2_radial_4913_5450)"/>
</g>
<defs>
<filter id="filter0_f_4913_5450" x="8.44444" y="8.44444" width="121.345" height="160.968" filterUnits="userSpaceOnUse" color-interpolation-filters="sRGB">
<feFlood flood-opacity="0" result="BackgroundImageFix"/>
<feBlend mode="normal" in="SourceGraphic" in2="BackgroundImageFix" result="shape"/>
<feGaussianBlur stdDeviation="2.90278" result="effect1_foregroundBlur_4913_5450"/>
</filter>
<filter id="filter1_f_4913_5450" x="0" y="0" width="138.234" height="177.857" filterUnits="userSpaceOnUse" color-interpolation-filters="sRGB">
<feFlood flood-opacity="0" result="BackgroundImageFix"/>
<feBlend mode="normal" in="SourceGraphic" in2="BackgroundImageFix" result="shape"/>
<feGaussianBlur stdDeviation="7.125" result="effect1_foregroundBlur_4913_5450"/>
</filter>
<radialGradient id="paint0_radial_4913_5450" cx="0" cy="0" r="1" gradientUnits="userSpaceOnUse" gradientTransform="translate(69.1158 88.9285) rotate(90) scale(74.6785 54.8658)">
<stop offset="0.692308" stop-color="#C3A560" stop-opacity="0"/>
<stop offset="1" stop-color="#C3A560"/>
</radialGradient>
<radialGradient id="paint1_radial_4913_5450" cx="0" cy="0" r="1" gradientUnits="userSpaceOnUse" gradientTransform="translate(69.1158 88.9285) rotate(90) scale(74.6785 54.8658)">
<stop stop-color="#FFD167"/>
<stop offset="1" stop-color="#997F42" stop-opacity="0"/>
</radialGradient>
<radialGradient id="paint2_radial_4913_5450" cx="0" cy="0" r="1" gradientUnits="userSpaceOnUse" gradientTransform="translate(69.1158 88.9285) rotate(90) scale(74.6785 54.8658)">
<stop stop-color="white"/>
<stop offset="1" stop-color="#997F42" stop-opacity="0"/>
</radialGradient>
<clipPath id="clip0_4913_5450">
<rect width="109.732" height="149.357" fill="white" transform="translate(14.25 14.25)"/>
</clipPath>
<clipPath id="clip1_4913_5450">
<rect width="109.732" height="149.357" fill="white" transform="translate(14.25 14.25)"/>
</clipPath>
<clipPath id="clip2_4913_5450">
<rect width="109.732" height="149.357" fill="white" transform="translate(14.25 14.25)"/>
</clipPath>
</defs>
</svg>
