<svg width="14" height="14" viewBox="0 0 14 14" fill="none" xmlns="http://www.w3.org/2000/svg">
<path d="M10.0039 0C11.8428 0.000132229 13.3339 1.49117 13.334 3.33008V10.0039C13.3339 11.8428 11.8428 13.3339 10.0039 13.334H3.33008C1.49116 13.3339 0.000133732 11.8428 0 10.0039V3.33008C0.000132036 1.49116 1.49117 0.000133539 3.33008 0H10.0039ZM6.66699 3.33398C4.82604 3.33398 3.33398 4.82604 3.33398 6.66699C3.33398 8.50794 4.82604 10 6.66699 10C8.50794 10 10 8.50794 10 6.66699C10 4.82604 8.50794 3.33398 6.66699 3.33398ZM6.66699 4.66699C7.77156 4.66699 8.66699 5.56242 8.66699 6.66699C8.66699 7.77156 7.77156 8.66699 6.66699 8.66699C5.56242 8.66699 4.66699 7.77156 4.66699 6.66699C4.66699 5.56242 5.56242 4.66699 6.66699 4.66699ZM10.667 2C10.2988 2 10 2.2988 10 2.66699C10 3.03518 10.2988 3.33398 10.667 3.33398C11.0352 3.33398 11.334 3.03518 11.334 2.66699C11.334 2.2988 11.0352 2 10.667 2Z" fill="#866E44"/>
</svg>
