<svg width="13" height="14" viewBox="0 0 13 14" fill="none" xmlns="http://www.w3.org/2000/svg">
<path d="M2.66699 13.334H0V4.33398H2.66699V13.334ZM7.33398 4.33398V4.89453C7.75093 4.7472 8.19959 4.66699 8.66699 4.66699C10.8761 4.66699 12.667 6.45785 12.667 8.66699V13.334H10V8.66699C10 7.93061 9.40337 7.33398 8.66699 7.33398C7.93061 7.33398 7.33398 7.93061 7.33398 8.66699V13.334H4.66699V4.33398H7.33398ZM1.33398 0C2.07021 0.000175841 2.66699 0.597713 2.66699 1.33398C2.66682 2.07011 2.07011 2.66682 1.33398 2.66699C0.597713 2.66699 0.000175841 2.07021 0 1.33398C0 0.597605 0.597605 0 1.33398 0Z" fill="#866E44"/>
</svg>
