<svg width="151" height="77" viewBox="0 0 151 77" fill="none" xmlns="http://www.w3.org/2000/svg">
<g clip-path="url(#clip0_2_5804)">
<path d="M57.6237 63.5834H151" stroke="#2E2A94" stroke-width="0.57" stroke-miterlimit="10"/>
<path fill-rule="evenodd" clip-rule="evenodd" d="M0 29.3602C0 45.5492 13.1553 58.7203 29.3248 58.7203C39.6384 58.7203 49.3165 53.1937 54.5732 44.2948C54.9091 43.7312 54.7184 42.9949 54.1555 42.6586C53.5927 42.3223 52.8573 42.5132 52.5213 43.0767C47.6914 51.2485 38.8031 56.3297 29.3248 56.3297C14.4717 56.3297 2.38775 44.2311 2.38775 29.3602C2.38775 14.4892 14.4717 2.39063 29.3248 2.39063C38.8031 2.39063 47.6914 7.47185 52.5213 15.6436C52.8573 16.2072 53.5836 16.3981 54.1555 16.0617C54.7184 15.7254 54.9091 14.9982 54.5732 14.4256C49.3074 5.52662 39.6384 0 29.3248 0C13.1553 0 0 13.1712 0 29.3602Z" fill="url(#paint0_linear_2_5804)"/>
<path fill-rule="evenodd" clip-rule="evenodd" d="M77.1342 49.6214C77.1342 55.4207 72.8853 59.3203 67.2201 59.2475C61.6819 59.1839 57.6237 55.2662 57.6237 49.6214C57.6237 43.9766 61.6093 40.0225 67.3018 39.9953C73.0578 39.9589 77.1342 43.9494 77.1342 49.6214ZM64.7234 55.2389C64.8686 56.457 65.1319 57.3205 65.5314 57.8204C66.3303 58.8385 68.4275 58.8385 69.2265 57.8204C69.6169 57.3205 69.8892 56.4661 70.0345 55.2389C70.1798 54.0209 70.2524 52.1484 70.2524 49.6305C70.2524 47.1126 70.1798 45.2401 70.0345 44.0221C69.8892 42.804 69.6169 41.9405 69.2265 41.4406C68.4275 40.4225 66.3303 40.4225 65.5314 41.4406C65.141 41.9405 64.8686 42.7949 64.7234 44.0221C64.5781 45.2401 64.5055 47.1126 64.5055 49.6305C64.5055 52.1484 64.5781 54.0209 64.7234 55.2389Z" fill="#2E2A94"/>
<path fill-rule="evenodd" clip-rule="evenodd" d="M91.733 50.6849C92.3595 51.7121 92.6772 52.7574 92.6772 53.8391C92.6772 54.9662 92.3232 56.0025 91.615 56.9478C89.1819 60.0656 81.6918 59.3294 78.7956 57.5023V52.4211H79.304C79.5401 53.3664 79.9487 54.3118 80.5388 55.2571C81.1289 56.2025 81.8734 56.9933 82.7813 57.6205C87.0211 60.5747 90.7071 56.257 86.1858 53.1664L82.2093 50.7667C81.029 50.0032 80.1212 49.1487 79.4766 48.1852C78.8319 47.2308 78.5142 46.2491 78.5142 45.2492C78.5142 44.1221 78.9227 43.0676 79.7308 42.095C81.8007 39.7953 86.5762 39.9498 89.309 40.5043C90.4257 40.7316 91.2791 40.9952 91.8874 41.3133V45.531H91.379C91.034 44.1948 90.3349 43.0495 89.2727 42.1041C85.3052 38.5773 79.7308 42.2496 85.1236 45.6492L89.1002 48.1307C90.2259 48.8124 91.1066 49.6669 91.733 50.694V50.6849Z" fill="#2E2A94"/>
<path fill-rule="evenodd" clip-rule="evenodd" d="M123.046 41.4496C122.547 41.7496 122.02 42.3586 121.457 43.2767C120.894 44.1948 120.286 45.531 119.632 47.2944L115.302 59.0658H114.004L108.538 47.1308L104.325 59.0658H102.945L95.5916 43.0767C95.1739 42.2405 94.7382 41.686 94.2933 41.4224C93.8484 41.1588 93.3763 41.0133 92.877 40.9861V40.5134H102.827V40.9861C102.119 40.9861 101.765 41.3406 101.765 42.0496C101.765 42.5768 101.947 43.204 102.319 43.9403L106.214 52.1302L108.257 46.54L106.641 43.0767C106.223 42.2132 105.851 41.6496 105.524 41.4042C105.197 41.1588 104.825 41.0133 104.398 40.9952V40.5225H113.994V40.9952C113.205 40.9952 112.814 41.3588 112.814 42.095C112.814 42.6222 112.996 43.2403 113.368 43.9494L117.227 52.1757L119.079 47.1762C119.342 46.3127 119.469 45.4128 119.469 44.4947C119.469 43.4949 119.251 42.6586 118.824 41.995C118.389 41.3224 117.653 40.9952 116.6 40.9952V40.5225H124.662V40.9952C124.081 40.9952 123.545 41.1497 123.046 41.4496Z" fill="#2E2A94"/>
<path fill-rule="evenodd" clip-rule="evenodd" d="M149.702 56.966C149.911 57.6386 150.346 58.0477 151 58.2022V58.7112H142.03V58.2022C142.711 58.0204 143.147 57.6023 143.328 56.9387C143.51 56.2843 143.601 55.3389 143.601 54.1027V33.896C143.601 33.2143 143.465 32.6961 143.192 32.3416C142.92 31.9871 142.375 31.669 141.558 31.3781V30.8691L149.384 29.3329V54.1027C149.384 55.3389 149.493 56.2843 149.702 56.9569V56.966Z" fill="#2E2A94"/>
<path fill-rule="evenodd" clip-rule="evenodd" d="M127.849 54.1209C127.849 57.0569 131.045 57.7841 132.189 54.9481V49.276C129.719 49.8396 127.849 51.4212 127.849 54.1209ZM126.505 42.3677C127.694 42.5768 128.602 43.613 128.602 44.8583C128.602 45.3674 128.457 45.831 128.203 46.2309C127.967 46.6127 127.64 46.9217 127.231 47.149C126.886 47.3308 126.514 47.4217 126.088 47.4217C125.615 47.4217 125.18 47.3035 124.789 47.0672C124.399 46.8308 124.081 46.5036 123.845 46.0855C123.754 45.9128 123.682 45.731 123.636 45.531C123.573 45.3128 123.545 45.0856 123.545 44.8583C123.545 44.0493 123.927 43.3312 124.508 42.8677C127.331 39.7408 133.205 38.8772 136.129 42.3223C137.318 43.7312 137.917 45.6492 137.917 48.0943V53.9664C137.917 54.6754 138.072 55.3117 138.389 55.8752C138.707 56.4388 139.179 56.7206 139.806 56.7206C140.042 56.7206 140.269 56.6569 140.496 56.5388C140.714 56.4206 140.868 56.257 140.95 56.0479L141.385 56.2843C141.149 57.0751 140.587 57.7386 139.697 58.2931C137.127 59.8838 132.624 59.2203 132.225 55.7298C131.934 56.7024 131.29 57.5114 130.282 58.1477C128.611 59.2112 126.487 59.3839 124.635 58.7203C121.902 57.7477 121.085 54.2209 122.946 52.1666C124.58 50.3577 128.793 49.5578 131.09 48.9942L132.189 48.7215V46.24C132.189 44.6402 131.871 43.3676 131.244 42.4223C129.474 39.7589 126.06 41.5951 126.505 42.3586V42.3677Z" fill="#2E2A94"/>
<path fill-rule="evenodd" clip-rule="evenodd" d="M77.3339 35.7322C77.7425 35.4685 78.0602 35.1686 78.2963 34.8232L78.7321 35.0959C78.3871 36.123 77.6789 37.0229 76.6076 37.7955C72.6492 40.6498 67.1656 38.6954 67.1656 32.9325V20.9793H64.9594L64.8777 20.4158H67.1565V15.1437L72.9397 14.3165V20.4158H77.8151L77.7334 20.9793H72.9397V32.8143C72.9397 33.9415 73.1758 34.7777 73.6479 35.314C74.12 35.8503 74.8826 36.123 75.9267 36.123C76.4533 36.123 76.9163 35.9958 77.3249 35.7322H77.3339Z" fill="#2E2A94"/>
<path fill-rule="evenodd" clip-rule="evenodd" d="M87.5204 36.8411C87.7293 37.4956 88.165 37.9137 88.8187 38.1046V38.6136H79.8488V38.1046C80.5297 37.9228 80.9655 37.4956 81.1471 36.8229C81.3286 36.1503 81.4194 35.2049 81.4194 33.9687V24.7971C81.4194 24.1426 81.2832 23.6336 81.0018 23.2609C80.7294 22.8973 80.1847 22.5246 79.3676 22.161V21.6884L87.1936 20.0704V33.9687C87.1936 35.2322 87.3025 36.1866 87.5114 36.8411H87.5204ZM83.907 11.5986C85.6593 11.5986 87.0756 13.0166 87.0756 14.771C87.0756 16.5253 85.6593 17.9433 83.907 17.9433C82.1548 17.9433 80.7385 16.5253 80.7385 14.771C80.7385 13.0166 82.1548 11.5986 83.907 11.5986Z" fill="#2E2A94"/>
<path fill-rule="evenodd" clip-rule="evenodd" d="M98.5694 36.8593C98.7783 37.5319 99.2141 37.941 99.8677 38.0955V38.6045H90.8978V38.0955C91.5787 37.9137 92.0145 37.4956 92.1961 36.832C92.3777 36.1776 92.4684 35.2322 92.4684 33.996V13.8075C92.4684 13.1257 92.3323 12.6076 92.0599 12.2531C91.7875 11.8986 91.2428 11.5805 90.4257 11.2896V10.7806L98.2517 9.24437V34.0142C98.2517 35.2504 98.3606 36.1957 98.5694 36.8684V36.8593Z" fill="#2E2A94"/>
<path fill-rule="evenodd" clip-rule="evenodd" d="M106.641 33.9596C106.641 36.8956 109.836 37.6228 110.971 34.7868V29.1147C108.502 29.6783 106.641 31.2599 106.641 33.9596ZM105.288 22.2065C106.477 22.4064 107.385 23.4518 107.385 24.6971C107.385 25.2061 107.24 25.6697 106.976 26.0696C106.74 26.4514 106.423 26.7605 106.005 26.9877C105.66 27.1695 105.288 27.2604 104.861 27.2604C104.389 27.2604 103.953 27.1422 103.563 26.9059C103.172 26.6696 102.855 26.3423 102.619 25.9242C102.528 25.7515 102.455 25.5697 102.41 25.3697C102.346 25.1516 102.319 24.9243 102.319 24.6971C102.319 23.8881 102.7 23.17 103.281 22.7064C106.105 19.5795 111.979 18.7251 114.902 22.161C116.092 23.5699 116.691 25.4879 116.691 27.9331V33.796C116.691 34.505 116.845 35.1413 117.163 35.7049C117.481 36.2684 117.953 36.5502 118.579 36.5502C118.815 36.5502 119.042 36.4957 119.269 36.3775C119.487 36.2594 119.642 36.0957 119.723 35.8867L120.159 36.123C119.923 36.9138 119.36 37.5774 118.47 38.1319C115.901 39.7226 111.407 39.059 110.998 35.5685C110.708 36.5411 110.063 37.3501 109.056 37.9864C107.385 39.0499 105.261 39.2226 103.408 38.5591C100.676 37.5865 99.8586 34.0596 101.72 32.0053C103.354 30.1964 107.567 29.3965 109.864 28.833L110.962 28.5603V26.0787C110.962 24.4789 110.644 23.2063 110.018 22.261C108.248 19.5977 104.834 21.4338 105.279 22.1974L105.288 22.2065Z" fill="#2E2A94"/>
<path fill-rule="evenodd" clip-rule="evenodd" d="M128.947 36.8593C129.156 37.5319 129.592 37.941 130.246 38.0955V38.6045H121.276V38.0955C121.957 37.9137 122.392 37.4956 122.574 36.832C122.756 36.1776 122.846 35.2322 122.846 33.996V13.8075C122.846 13.1257 122.71 12.6076 122.429 12.2531C122.156 11.8986 121.612 11.5805 120.795 11.2896V10.7806L128.621 9.24437V34.0142C128.621 35.2504 128.72 36.1957 128.938 36.8684L128.947 36.8593Z" fill="#2E2A94"/>
<path fill-rule="evenodd" clip-rule="evenodd" d="M64.9957 29.5147C64.9957 35.314 60.7468 39.2045 55.0816 39.1408C49.5435 39.0772 45.4852 35.1595 45.4852 29.5147C45.4852 23.8699 49.4617 19.9249 55.1633 19.8886C60.9193 19.8522 64.9957 23.8426 64.9957 29.5147ZM52.594 35.1231C52.7392 36.3412 53.0025 37.2047 53.402 37.7046C54.2009 38.7227 56.2982 38.7227 57.0971 37.7046C57.4875 37.2047 57.7598 36.3502 57.9051 35.1231C58.0504 33.9051 58.123 32.0326 58.123 29.5147C58.123 26.9968 58.0504 25.1243 57.9051 23.9063C57.7598 22.6882 57.4875 21.8247 57.0971 21.3247C56.2982 20.3067 54.2009 20.3067 53.402 21.3247C53.0116 21.8247 52.7392 22.6791 52.594 23.9063C52.4487 25.1243 52.3761 26.9968 52.3761 29.5147C52.3761 32.0326 52.4487 33.9051 52.594 35.1231Z" fill="#2E2A94"/>
<path fill-rule="evenodd" clip-rule="evenodd" d="M43.6694 36.8411C43.8964 37.5228 44.314 37.941 44.9496 38.1046V38.6136H35.9796V38.1046C36.6605 37.9228 37.0963 37.4956 37.2779 36.8229C37.4595 36.1503 37.5503 35.2049 37.5503 33.9687V26.1696C37.5503 23.9881 36.7786 22.8973 35.2261 22.8973C34.645 22.8973 34.0821 23.1518 33.5374 23.6608C32.9836 24.1699 32.6477 24.7607 32.5115 25.4152L32.5478 26.1242V33.9596C32.5478 35.1958 32.6567 36.1503 32.8837 36.832C33.1016 37.5138 33.5283 37.9319 34.1638 38.0955V38.6045H25.1939V38.0955C25.8748 37.9137 26.3106 37.4865 26.4922 36.8138C26.6738 36.1412 26.7645 35.1958 26.7645 33.9596V26.1605C26.7645 25.0607 26.583 24.2335 26.2107 23.6972C25.8476 23.1609 25.2665 22.8882 24.4767 22.8882C23.8956 22.8882 23.3509 23.1427 22.8243 23.6336C22.2977 24.1335 21.9709 24.6698 21.8438 25.2516V33.996C21.8438 35.2322 21.9437 36.1775 22.1616 36.832C22.3704 37.4865 22.8062 37.9046 23.4598 38.0955V38.6045H14.4899V38.0955C15.1708 37.9137 15.5975 37.4956 15.77 36.8593C15.9425 36.2139 16.0242 35.2686 16.0242 34.0051V24.9061C16.0242 24.1971 15.888 23.6518 15.6066 23.27C15.3342 22.8882 14.7986 22.5155 14.0178 22.1519V21.6793L21.8438 20.0613V23.9608C24.2406 18.8069 31.5945 18.5342 32.4661 24.1608C32.9109 22.9791 33.6463 22.0065 34.6723 21.2248C38.7759 18.1251 43.3244 20.6157 43.3244 26.0515V33.9687C43.3244 35.2049 43.4334 36.1594 43.6603 36.8411H43.6694Z" fill="#2E2A94"/>
<path d="M64.5599 71.8733C64.342 72.2733 63.997 72.6096 63.5249 72.8641C63.0528 73.1187 62.4446 73.2459 61.7092 73.2459H60.084V76.8818H58.6133V67.9102H61.7092C62.3992 67.9102 62.9802 68.0283 63.4523 68.2647C63.9244 68.501 64.2876 68.8192 64.5236 69.2282C64.7597 69.6372 64.8777 70.0826 64.8777 70.5826C64.8777 71.0371 64.7688 71.4643 64.5599 71.8733ZM62.9621 71.6643C63.2344 71.4098 63.3706 71.0553 63.3706 70.5826C63.3706 69.6009 62.8168 69.11 61.7092 69.11H60.084V72.037H61.7092C62.2721 72.037 62.6806 71.9097 62.9621 71.6552V71.6643Z" fill="#2E2A94"/>
<path d="M68.5456 69.9645C68.8996 69.7645 69.3264 69.6645 69.8166 69.6645V71.1825H69.4444C68.8724 71.1825 68.4366 71.3279 68.137 71.6188C67.8374 71.9097 67.6921 72.4187 67.6921 73.1459V76.8909H66.2214V69.7827H67.6921V70.8189C67.91 70.4553 68.1915 70.1735 68.5456 69.9736V69.9645Z" fill="#2E2A94"/>
<path d="M71.1785 68.5646C70.9969 68.3828 70.9061 68.1647 70.9061 67.892C70.9061 67.6193 70.9969 67.4011 71.1785 67.2193C71.36 67.0375 71.5779 66.9466 71.8503 66.9466C72.1227 66.9466 72.3315 67.0375 72.504 67.2193C72.6765 67.4011 72.7763 67.6193 72.7763 67.892C72.7763 68.1647 72.6855 68.3828 72.504 68.5646C72.3224 68.7464 72.1045 68.8373 71.8503 68.8373C71.5961 68.8373 71.36 68.7464 71.1785 68.5646ZM72.5766 69.7736V76.8818H71.1058V69.7736H72.5766Z" fill="#2E2A94"/>
<path d="M77.1887 75.5638L79.1951 69.7736H80.7567L78.0512 76.8818H76.2989L73.6025 69.7736H75.1732L77.1796 75.5638H77.1887Z" fill="#2E2A94"/>
<path d="M81.7463 71.4007C82.0459 70.8462 82.4453 70.419 82.9538 70.119C83.4622 69.819 84.0341 69.6645 84.6515 69.6645C85.2053 69.6645 85.6956 69.7736 86.1132 69.9917C86.5308 70.2099 86.8668 70.4826 87.1119 70.8098V69.7736H88.5918V76.8818H87.1119V75.8274C86.8668 76.1637 86.5218 76.4455 86.0951 76.6637C85.6684 76.8909 85.1781 77 84.6243 77C84.016 77 83.4531 76.8455 82.9447 76.5273C82.4363 76.2092 82.0368 75.7729 81.7372 75.2093C81.4376 74.6457 81.2923 74.0094 81.2923 73.2913C81.2923 72.5733 81.4376 71.9461 81.7372 71.3916L81.7463 71.4007ZM86.8123 72.046C86.6126 71.6825 86.3493 71.4098 86.0224 71.2189C85.6956 71.028 85.3415 70.9371 84.9693 70.9371C84.597 70.9371 84.243 71.028 83.9161 71.2189C83.5893 71.4007 83.326 71.6734 83.1263 72.0279C82.9265 72.3824 82.8267 72.8096 82.8267 73.3004C82.8267 73.7913 82.9265 74.2185 83.1263 74.5912C83.326 74.9639 83.5984 75.2457 83.9252 75.4365C84.252 75.6274 84.6061 75.7274 84.9784 75.7274C85.3506 75.7274 85.7047 75.6365 86.0315 75.4456C86.3583 75.2548 86.6216 74.9821 86.8214 74.6094C87.0211 74.2458 87.121 73.8186 87.121 73.3277C87.121 72.8369 87.0211 72.4096 86.8214 72.046H86.8123Z" fill="#2E2A94"/>
<path d="M92.1779 70.9734V74.9093C92.1779 75.1729 92.2415 75.3638 92.3686 75.482C92.4957 75.6002 92.7045 75.6547 93.0041 75.6547H93.9029V76.8818H92.7408C92.078 76.8818 91.5696 76.7273 91.2155 76.4182C90.8615 76.1092 90.689 75.6093 90.689 74.9093V70.9734H89.8537V69.7736H90.689V68.0101H92.1688V69.7736H93.8938V70.9734H92.1688H92.1779Z" fill="#2E2A94"/>
<path d="M101.647 73.8731H96.218C96.2634 74.4367 96.4722 74.9002 96.8535 75.2366C97.2348 75.5729 97.6979 75.7547 98.2426 75.7547C99.0325 75.7547 99.5953 75.4275 99.9222 74.7639H101.511C101.293 75.4184 100.912 75.9547 100.349 76.3728C99.786 76.7909 99.0869 77 98.2517 77C97.5708 77 96.9625 76.8455 96.4268 76.5455C95.8912 76.2455 95.4645 75.8092 95.1649 75.2548C94.8562 74.7003 94.7109 74.0549 94.7109 73.3277C94.7109 72.6005 94.8562 71.9551 95.1558 71.4007C95.4554 70.8462 95.873 70.419 96.4087 70.119C96.9443 69.819 97.5617 69.6645 98.2608 69.6645C98.9598 69.6645 99.5318 69.8099 100.049 70.1008C100.576 70.3917 100.984 70.8007 101.275 71.337C101.565 71.8642 101.711 72.4733 101.711 73.1641C101.711 73.4277 101.693 73.6731 101.656 73.8822L101.647 73.8731ZM100.167 72.6914C100.167 72.146 99.9676 71.7188 99.5863 71.3916C99.205 71.0643 98.7419 70.9007 98.179 70.9007C97.6706 70.9007 97.2348 71.0643 96.8808 71.3825C96.5176 71.7006 96.3088 72.1369 96.2362 72.6914H100.167Z" fill="#2E2A94"/>
<path d="M118.543 67.9193L115.892 76.8909H114.231L112.351 70.1008L110.354 76.8909H108.701L106.159 67.9193H107.721L109.573 75.2184L111.579 67.9193H113.232L115.102 75.182L116.972 67.9193H118.543Z" fill="#2E2A94"/>
<path d="M126.151 73.8731H120.722C120.767 74.4367 120.976 74.9002 121.357 75.2366C121.739 75.5729 122.202 75.7547 122.746 75.7547C123.536 75.7547 124.099 75.4275 124.426 74.7639H126.015C125.797 75.4184 125.416 75.9547 124.853 76.3728C124.29 76.7909 123.591 77 122.756 77C122.075 77 121.466 76.8455 120.931 76.5455C120.395 76.2455 119.968 75.8092 119.669 75.2548C119.36 74.7003 119.215 74.0549 119.215 73.3277C119.215 72.6005 119.36 71.9551 119.66 71.4007C119.959 70.8462 120.377 70.419 120.913 70.119C121.448 69.819 122.066 69.6645 122.765 69.6645C123.464 69.6645 124.036 69.8099 124.553 70.1008C125.08 70.3917 125.488 70.8007 125.779 71.337C126.069 71.8642 126.215 72.4733 126.215 73.1641C126.215 73.4277 126.196 73.6731 126.16 73.8822L126.151 73.8731ZM124.662 72.6914C124.662 72.146 124.462 71.7188 124.081 71.3916C123.7 71.0643 123.237 70.9007 122.674 70.9007C122.165 70.9007 121.73 71.0643 121.376 71.3825C121.012 71.7006 120.804 72.1369 120.731 72.6914H124.662Z" fill="#2E2A94"/>
<path d="M127.531 71.4007C127.831 70.8462 128.23 70.419 128.739 70.119C129.247 69.819 129.819 69.6645 130.436 69.6645C130.99 69.6645 131.48 69.7736 131.898 69.9917C132.316 70.2099 132.652 70.4826 132.897 70.8098V69.7736H134.377V76.8818H132.897V75.8274C132.652 76.1637 132.307 76.4455 131.88 76.6637C131.453 76.8909 130.963 77 130.409 77C129.801 77 129.238 76.8455 128.729 76.5273C128.221 76.2092 127.822 75.7729 127.522 75.2093C127.222 74.6457 127.077 74.0094 127.077 73.2913C127.077 72.5733 127.222 71.9461 127.522 71.3916L127.531 71.4007ZM132.597 72.046C132.397 71.6825 132.134 71.4098 131.807 71.2189C131.48 71.028 131.126 70.9371 130.754 70.9371C130.382 70.9371 130.028 71.028 129.701 71.2189C129.374 71.4007 129.111 71.6734 128.911 72.0279C128.711 72.3824 128.611 72.8096 128.611 73.3004C128.611 73.7913 128.711 74.2185 128.911 74.5912C129.111 74.9639 129.383 75.2457 129.71 75.4365C130.037 75.6274 130.391 75.7274 130.763 75.7274C131.135 75.7274 131.489 75.6365 131.816 75.4456C132.143 75.2548 132.406 74.9821 132.606 74.6094C132.806 74.2458 132.906 73.8186 132.906 73.3277C132.906 72.8369 132.806 72.4096 132.606 72.046H132.597Z" fill="#2E2A94"/>
<path d="M137.718 67.3375V76.8818H136.247V67.3375H137.718Z" fill="#2E2A94"/>
<path d="M141.295 70.9734V74.9093C141.295 75.1729 141.358 75.3638 141.485 75.482C141.612 75.6002 141.821 75.6547 142.121 75.6547H143.02V76.8818H141.858C141.195 76.8818 140.686 76.7273 140.332 76.4182C139.978 76.1092 139.806 75.6093 139.806 74.9093V70.9734H138.97V69.7736H139.806V68.0101H141.286V69.7736H143.011V70.9734H141.286H141.295Z" fill="#2E2A94"/>
<path d="M149.429 70.0099C149.856 70.2462 150.192 70.5826 150.437 71.0462C150.682 71.5006 150.8 72.0551 150.8 72.7005V76.8909H149.348V72.9187C149.348 72.2824 149.184 71.7915 148.866 71.4552C148.549 71.1189 148.113 70.9462 147.568 70.9462C147.023 70.9462 146.579 71.1189 146.261 71.4552C145.943 71.7915 145.78 72.2824 145.78 72.9187V76.8909H144.309V67.3466H145.78V70.6098C146.025 70.3099 146.343 70.0735 146.724 69.9099C147.105 69.7463 147.523 69.6645 147.977 69.6645C148.521 69.6645 149.003 69.7827 149.429 70.0099Z" fill="#2E2A94"/>
</g>
<defs>
<linearGradient id="paint0_linear_2_5804" x1="27.3696" y1="0" x2="27.3696" y2="58.7203" gradientUnits="userSpaceOnUse">
<stop stop-color="#FFCF00"/>
<stop offset="1" stop-color="#FAAD19"/>
</linearGradient>
<clipPath id="clip0_2_5804">
<rect width="151" height="77" fill="white"/>
</clipPath>
</defs>
</svg>
