<svg width="31" height="31" viewBox="0 0 31 31" fill="none" xmlns="http://www.w3.org/2000/svg">
<path d="M25.2518 11.9358L8.6843 2.3639C8.21072 2.08371 7.67139 1.93389 7.12114 1.92969C6.25617 1.92969 5.42662 2.2733 4.81498 2.88493C4.20335 3.49656 3.85974 4.32611 3.85974 5.19109V25.7341C3.85985 26.3081 4.01372 26.8716 4.30536 27.366C4.59699 27.8604 5.01575 28.2676 5.51807 28.5454C6.0204 28.8231 6.58796 28.9613 7.16175 28.9454C7.73553 28.9295 8.29459 28.7602 8.78079 28.4551L25.3676 17.9762C25.8834 17.6534 26.3067 17.2025 26.5964 16.6675C26.886 16.1325 27.0322 15.5315 27.0205 14.9232C27.0088 14.3149 26.8398 13.72 26.5298 13.1965C26.2199 12.6729 25.7796 12.2386 25.2518 11.9358Z" fill="white"/>
</svg>
