<svg width="20" height="20" viewBox="0 0 20 20" fill="none" xmlns="http://www.w3.org/2000/svg">
<path d="M13.4362 13.2641C13.889 12.814 14.2479 12.2785 14.4922 11.6887C14.7365 11.0989 14.8613 10.4665 14.8594 9.82813C14.8594 9.66236 14.7935 9.50339 14.6763 9.38618C14.5591 9.26897 14.4001 9.20312 14.2344 9.20312C14.0686 9.20312 13.9096 9.26897 13.7924 9.38618C13.6752 9.50339 13.6094 9.66236 13.6094 9.82813C13.6094 10.7854 13.2291 11.7034 12.5522 12.3803C11.8753 13.0572 10.9573 13.4375 10 13.4375C9.04273 13.4375 8.12468 13.0572 7.44779 12.3803C6.7709 11.7034 6.39062 10.7854 6.39062 9.82813C6.39062 9.66236 6.32478 9.50339 6.20757 9.38618C6.09036 9.26897 5.93139 9.20312 5.76562 9.20312C5.59986 9.20312 5.44089 9.26897 5.32368 9.38618C5.20647 9.50339 5.14062 9.66236 5.14062 9.82813C5.14251 11.0077 5.57313 12.1464 6.35226 13.0321C7.13139 13.9177 8.2059 14.49 9.37563 14.6422V16.2497H7.81313C7.64736 16.2497 7.48839 16.3155 7.37118 16.4327C7.25397 16.55 7.18813 16.7089 7.18813 16.8747C7.18813 17.0404 7.25397 17.1994 7.37118 17.3166C7.48839 17.4338 7.64736 17.4997 7.81313 17.4997H12.1881C12.3539 17.4997 12.5129 17.4338 12.6301 17.3166C12.7473 17.1994 12.8131 17.0404 12.8131 16.8747C12.8131 16.7089 12.7473 16.55 12.6301 16.4327C12.5129 16.3155 12.3539 16.2497 12.1881 16.2497H10.6256V14.6428C11.6898 14.5088 12.6789 14.0236 13.4362 13.2641Z" fill="#2E2A94"/>
<path d="M10.0025 12.4144C10.7074 12.4135 11.3832 12.1332 11.8816 11.6347C12.38 11.1363 12.6604 10.4605 12.6612 9.75563V5.315C12.6612 4.60986 12.3811 3.93359 11.8825 3.43498C11.3839 2.93637 10.7076 2.65625 10.0025 2.65625C9.29736 2.65625 8.62109 2.93637 8.12248 3.43498C7.62387 3.93359 7.34375 4.60986 7.34375 5.315V9.75563C7.34458 10.4605 7.62496 11.1363 8.12339 11.6347C8.62183 12.1332 9.29761 12.4135 10.0025 12.4144Z" fill="#2E2A94"/>
</svg>
