<svg width="34" height="26" viewBox="0 0 34 26" fill="none" xmlns="http://www.w3.org/2000/svg">
<path d="M14.2269 0V6.73904C14.2269 8.78571 13.8525 10.9697 13.1037 13.2909C12.3799 15.5872 11.3066 17.821 9.88393 19.9925C8.4862 22.139 6.78896 24.011 4.79221 25.6084L0 21.7147C1.57244 19.4683 2.93273 17.1346 4.08086 14.7136C5.25396 12.2676 5.8405 9.65929 5.8405 6.8888V0H14.2269ZM33.3957 0V6.73904C33.3957 8.78571 33.0213 10.9697 32.2725 13.2909C31.5487 15.5872 30.4754 17.821 29.0528 19.9925C27.655 22.139 25.9578 24.011 23.961 25.6084L19.1688 21.7147C20.7413 19.4683 22.1016 17.1346 23.2497 14.7136C24.4228 12.2676 25.0093 9.65929 25.0093 6.8888V0H33.3957Z" fill="#866E44"/>
</svg>
