<svg width="24" height="24" viewBox="0 0 24 24" fill="none" xmlns="http://www.w3.org/2000/svg">
<path d="M7.39395 7.422H4.85778C4.38599 7.422 4 7.80801 4 8.27978V12.4915C4 12.9633 4.38599 13.3493 4.85778 13.3493H7.39395V7.422Z" fill="#866E44"/>
<path d="M17.1298 5.08596C16.8119 4.93006 16.441 4.99235 16.1805 5.2232C14.4413 6.64388 12.2094 7.42856 9.96731 7.42197C9.96731 7.42197 7.96582 7.42197 7.96582 7.42197V13.3492H9.96731C12.2215 13.3398 14.4295 14.1302 16.1948 15.5595C16.7232 16.0355 17.6428 15.6287 17.6187 14.9104C17.6187 14.9104 17.6187 5.86082 17.6187 5.86082C17.6187 5.52628 17.4329 5.22892 17.1298 5.08596Z" fill="#866E44"/>
<path d="M18.1906 8.13965V12.6287C20.6038 12.0818 20.6025 8.68572 18.1906 8.13965Z" fill="#866E44"/>
<path d="M9.20669 13.9211H5.86707L8.08014 18.8191C8.26884 19.2365 8.6863 19.5082 9.14664 19.5082C9.89017 19.5279 10.4863 18.7578 10.2789 18.0413L9.20669 13.9211Z" fill="#866E44"/>
</svg>
