<svg width="16" height="13" viewBox="0 0 16 13" fill="none" xmlns="http://www.w3.org/2000/svg">
<path d="M12.3096 0C14.0602 8.79524e-05 15.4794 1.41927 15.4795 3.16992V9.83008C15.4794 11.5807 14.0602 12.9999 12.3096 13H3.16992C1.41924 13 4.22639e-05 11.5808 0 9.83008V3.16992C4.23931e-05 1.41924 1.41924 4.22617e-05 3.16992 0H12.3096ZM6.93359 3.87109C6.15579 3.48219 5.24053 4.04747 5.24023 4.91699V8.08203C5.24023 8.95179 6.15566 9.51787 6.93359 9.12891L10.0986 7.5459C10.9603 7.11451 10.9606 5.8843 10.0986 5.45312L6.93359 3.87109Z" fill="#866E44"/>
</svg>
