<svg width="20" height="20" viewBox="0 0 20 20" fill="none" xmlns="http://www.w3.org/2000/svg">
<path d="M16.1496 5.80551C15.6683 5.23338 14.7797 5 13.0826 5H6.92243C5.18656 5 4.28291 5.24843 3.80342 5.85755C3.33594 6.45144 3.33594 7.32649 3.33594 8.53759V10.8459C3.33594 13.1922 3.8906 14.3835 6.92243 14.3835H13.0827C14.5543 14.3835 15.3698 14.1775 15.8974 13.6726C16.4384 13.1549 16.6693 12.3095 16.6693 10.8459V8.53759C16.6693 7.26039 16.6331 6.38017 16.1496 5.80551ZM11.896 10.0105L9.09865 11.4724C9.03611 11.5051 8.96772 11.5213 8.89942 11.5213C8.82209 11.5213 8.74493 11.5005 8.67658 11.4591C8.54789 11.3812 8.46931 11.2417 8.46931 11.0912V8.17665C8.46931 8.02645 8.54768 7.8871 8.67611 7.80908C8.80458 7.73105 8.96437 7.72572 9.09766 7.79497L11.895 9.24753C12.0373 9.32142 12.1267 9.46834 12.1269 9.62865C12.1271 9.78908 12.0381 9.93622 11.896 10.0105Z" fill="#2E2A94"/>
</svg>
